<svg width="115" height="115" viewBox="0 0 115 115" fill="none" xmlns="http://www.w3.org/2000/svg">
<g id="bi:qr-code-scan" clip-path="url(#clip0_104_2)">
<g id="Group">
<path id="Vector" d="M0 3.59375C0 2.64063 0.378626 1.72654 1.05259 1.05259C1.72654 0.378626 2.64063 0 3.59375 0L25.1562 0C26.1094 0 27.0235 0.378626 27.6974 1.05259C28.3714 1.72654 28.75 2.64063 28.75 3.59375C28.75 4.54687 28.3714 5.46096 27.6974 6.13492C27.0235 6.80887 26.1094 7.1875 25.1562 7.1875H7.1875V25.1562C7.1875 26.1094 6.80887 27.0235 6.13492 27.6974C5.46096 28.3714 4.54687 28.75 3.59375 28.75C2.64063 28.75 1.72654 28.3714 1.05259 27.6974C0.378626 27.0235 0 26.1094 0 25.1562V3.59375ZM86.25 3.59375C86.25 2.64063 86.6286 1.72654 87.3026 1.05259C87.9765 0.378626 88.8906 0 89.8438 0L111.406 0C112.359 0 113.273 0.378626 113.947 1.05259C114.621 1.72654 115 2.64063 115 3.59375V25.1562C115 26.1094 114.621 27.0235 113.947 27.6974C113.273 28.3714 112.359 28.75 111.406 28.75C110.453 28.75 109.539 28.3714 108.865 27.6974C108.191 27.0235 107.812 26.1094 107.812 25.1562V7.1875H89.8438C88.8906 7.1875 87.9765 6.80887 87.3026 6.13492C86.6286 5.46096 86.25 4.54687 86.25 3.59375ZM3.59375 86.25C4.54687 86.25 5.46096 86.6286 6.13492 87.3026C6.80887 87.9765 7.1875 88.8906 7.1875 89.8438V107.812H25.1562C26.1094 107.812 27.0235 108.191 27.6974 108.865C28.3714 109.539 28.75 110.453 28.75 111.406C28.75 112.359 28.3714 113.273 27.6974 113.947C27.0235 114.621 26.1094 115 25.1562 115H3.59375C2.64063 115 1.72654 114.621 1.05259 113.947C0.378626 113.273 0 112.359 0 111.406V89.8438C0 88.8906 0.378626 87.9765 1.05259 87.3026C1.72654 86.6286 2.64063 86.25 3.59375 86.25ZM111.406 86.25C112.359 86.25 113.273 86.6286 113.947 87.3026C114.621 87.9765 115 88.8906 115 89.8438V111.406C115 112.359 114.621 113.273 113.947 113.947C113.273 114.621 112.359 115 111.406 115H89.8438C88.8906 115 87.9765 114.621 87.3026 113.947C86.6286 113.273 86.25 112.359 86.25 111.406C86.25 110.453 86.6286 109.539 87.3026 108.865C87.9765 108.191 88.8906 107.812 89.8438 107.812H107.812V89.8438C107.812 88.8906 108.191 87.9765 108.865 87.3026C109.539 86.6286 110.453 86.25 111.406 86.25ZM28.75 28.75H35.9375V35.9375H28.75V28.75Z" fill="black"/>
<path id="Vector_2" d="M50.3125 14.375H14.375V50.3125H50.3125V14.375ZM21.5625 21.5625H43.125V43.125H21.5625V21.5625ZM35.9375 79.0625H28.75V86.25H35.9375V79.0625Z" fill="black"/>
<path id="Vector_3" d="M50.3125 64.6875H14.375V100.625H50.3125V64.6875ZM21.5625 71.875H43.125V93.4375H21.5625V71.875ZM79.0625 28.75H86.25V35.9375H79.0625V28.75Z" fill="black"/>
<path id="Vector_4" d="M64.6875 14.375H100.625V50.3125H64.6875V14.375ZM71.875 21.5625V43.125H93.4375V21.5625H71.875ZM57.5 57.5V71.875H64.6875V79.0625H57.5V86.25H71.875V71.875H79.0625V86.25H86.25V79.0625H100.625V71.875H79.0625V57.5H57.5ZM71.875 71.875H64.6875V64.6875H71.875V71.875ZM100.625 86.25H93.4375V93.4375H79.0625V100.625H100.625V86.25ZM71.875 100.625V93.4375H57.5V100.625H71.875Z" fill="black"/>
<path id="Vector_5" d="M86.25 64.6875H100.625V57.5H86.25V64.6875Z" fill="black"/>
</g>
</g>
<defs>
<clipPath id="clip0_104_2">
<rect width="115" height="115" fill="white"/>
</clipPath>
</defs>
</svg>
